<svg height="32" width="32" xmlns="http://www.w3.org/2000/svg"><path d="M21 26v2.003A1.995 1.995 0 0 1 19.003 30H3.997A2 2 0 0 1 2 27.993V5.007C2 3.897 2.9 3 4.01 3H14v6.002c0 1.11.898 1.998 2.006 1.998H21v2h-8.993A3.003 3.003 0 0 0 9 16v7c0 1.657 1.336 3 3.007 3H21zM15 3v5.997A1 1 0 0 0 15.99 10H21l-6-7zm-3.005 11A2 2 0 0 0 10 15.992v7.016A2 2 0 0 0 11.995 25h17.01A2 2 0 0 0 31 23.008v-7.016A2 2 0 0 0 29.005 14h-17.01zM12 18c0-1.112.898-2 2.005-2h.99a2 2 0 0 1 1.33 3.5c.414.367.675.903.675 1.5 0 1.112-.898 2-2.005 2h-.99A2 2 0 0 1 12 21h1c0 .552.443 1 1 1h1c.553 0 1-.444 1-1 0-.552-.443-1-1-1h-1v-1h1c.553 0 1-.444 1-1 0-.552-.443-1-1-1h-1c-.553 0-1 .444-1 1h-1zm10 2v2h-2c-.556 0-1-.448-1-1v-3c0-.556.448-1 1-1h3v-1h-2.995A1.998 1.998 0 0 0 18 18.006v2.988c0 1.108.894 2.006 2.005 2.006H23v-4h-3v1h2zm2-2v5h1v-3h1.995a2 2 0 0 0 0-4H24v2zm1-1v2h2c.553 0 1-.444 1-1 0-.552-.443-1-1-1h-2z" fill="#157EFB" fill-rule="evenodd"/></svg>