<svg height="32" width="32" xmlns="http://www.w3.org/2000/svg"><path d="M19 26v2.003A1.995 1.995 0 0 1 17.003 30H1.997A2 2 0 0 1 0 27.993V5.007C0 3.897.9 3 2.01 3H12v6.002c0 1.11.898 1.998 2.006 1.998H19v2H6.007A3.003 3.003 0 0 0 3 16v7c0 1.657 1.336 3 3.007 3H19zM13 3v5.997A1 1 0 0 0 13.99 10H19l-6-7zM6.007 14C4.9 14 4 14.9 4 15.992v7.016A2 2 0 0 0 6.007 25h22.986C30.1 25 31 24.1 31 23.008v-7.016A2 2 0 0 0 28.993 14H6.007zM6 16v7h2.995A1.998 1.998 0 0 0 11 20.994v-2.988A2.003 2.003 0 0 0 8.995 16H6zm1 1v5h2c.553 0 1-.444 1-1v-3c0-.552-.443-1-1-1H7zm7.005-1A1.998 1.998 0 0 0 12 18.006v2.988c0 1.108.894 2.006 2.005 2.006h.99A1.998 1.998 0 0 0 17 20.994v-2.988A2.003 2.003 0 0 0 14.995 16h-.99zM14 17c-.553 0-1 .444-1 1v3c0 .552.443 1 1 1h1c.553 0 1-.444 1-1v-3c0-.552-.443-1-1-1h-1zm9 4c-.003 1.117-.9 2-2.005 2h-.99A2.003 2.003 0 0 1 18 20.994v-2.988c0-1.12.898-2.006 2.005-2.006h.99c1.11 0 2.002.895 2.005 2h-1c0-.552-.443-1-1-1h-1c-.553 0-1 .444-1 1v3c0 .552.443 1 1 1h1c.553 0 1-.444 1-1h1zm3-1.5L24 16h1l1.5 2.625L28 16h1l-2 3.5 2 3.5h-1l-1.5-2.625L25 23h-1l2-3.5z" fill="#157EFB" fill-rule="evenodd"/></svg>