<svg height="32" width="32" xmlns="http://www.w3.org/2000/svg"><path d="M21 26v2.003A1.995 1.995 0 0 1 19.003 30H3.997A2 2 0 0 1 2 27.993V5.007C2 3.897 2.9 3 4.01 3H14v6.002c0 1.11.898 1.998 2.006 1.998H21v2h-8.993A3.003 3.003 0 0 0 9 16v7c0 1.657 1.336 3 3.007 3H21zM15 3v5.997A1 1 0 0 0 15.99 10H21l-6-7zm-3.005 11A2 2 0 0 0 10 15.992v7.016A2 2 0 0 0 11.995 25h17.01A2 2 0 0 0 31 23.008v-7.016A2 2 0 0 0 29.005 14h-17.01zM13 20v2h4v1h-5v-7h5v1h-4v2h3v1h-3zm7-.5L18 16h1l1.5 2.625L22 16h1l-2 3.5 2 3.5h-1l-1.5-2.625L19 23h-1l2-3.5zm5 .5v2h4v1h-5v-7h5v1h-4v2h3v1h-3z" fill="#157EFB" fill-rule="evenodd"/></svg>