<svg height="32" width="32" xmlns="http://www.w3.org/2000/svg"><path d="M19 26v2.003A1.995 1.995 0 0 1 17.003 30H1.997A2 2 0 0 1 0 27.993V5.007C0 3.897.9 3 2.01 3H12v6.002c0 1.11.898 1.998 2.006 1.998H19v2H6.007A3.003 3.003 0 0 0 3 16v7c0 1.657 1.336 3 3.007 3H19zM13 3v5.997A1 1 0 0 0 13.99 10H19l-6-7zM6.007 14C4.9 14 4 14.9 4 15.992v7.016A2 2 0 0 0 6.007 25h22.986C30.1 25 31 24.1 31 23.008v-7.016A2 2 0 0 0 28.993 14H6.007zM20.5 21.25L22 16h1l-2 7h-1l-2-7h1l1.5 5.25zM6 20v.994C6 22.102 6.894 23 8.005 23h.99A1.998 1.998 0 0 0 11 20.994V16h-1v5.01A1 1 0 0 1 9 22H8c-.557 0-1-.448-1-1v-1H6zm10 0h-3v3h-1v-5c0-1.112.898-2 2.005-2h.99A2 2 0 0 1 17 18v5h-1v-3zm-2-3c-.553 0-1 .444-1 1v1h3v-1c0-.552-.443-1-1-1h-1zm14 3h-3v3h-1v-5c0-1.112.898-2 2.005-2h.99A2 2 0 0 1 29 18v5h-1v-3zm-2-3c-.553 0-1 .444-1 1v1h3v-1c0-.552-.443-1-1-1h-1z" fill="#157EFB" fill-rule="evenodd"/></svg>