<svg height="32" width="32" xmlns="http://www.w3.org/2000/svg"><path d="M21 26v2.003A1.995 1.995 0 0 1 19.003 30H3.997A2 2 0 0 1 2 27.993V5.007C2 3.897 2.9 3 4.01 3H14v6.002c0 1.11.898 1.998 2.006 1.998H21v2h-8.993A3.003 3.003 0 0 0 9 16v7c0 1.657 1.336 3 3.007 3H21zM15 3v5.997A1 1 0 0 0 15.99 10H21l-6-7zm-3.005 11A2 2 0 0 0 10 15.992v7.016A2 2 0 0 0 11.995 25h17.01A2 2 0 0 0 31 23.008v-7.016A2 2 0 0 0 29.005 14h-17.01zM19 20v2h4v1h-5v-7h5v1h-4v2h3v1h-3zm-6 .3V23h-1v-7h1v2.7l2.7-2.7H17l-3.5 3.5L17 23h-1.3L13 20.3zm14-.3v3h-1v-3l-2-3v-1h1v1l1.5 2.25L28 17v-1h1v1l-2 3z" fill="#157EFB" fill-rule="evenodd"/></svg>