<svg height="32" width="32" xmlns="http://www.w3.org/2000/svg"><path d="M21 26v2.003A1.995 1.995 0 0 1 19.003 30H3.997A2 2 0 0 1 2 27.993V5.007C2 3.897 2.9 3 4.01 3H14v6.002c0 1.11.898 1.998 2.006 1.998H21v2h-8.993A3.003 3.003 0 0 0 9 16v7c0 1.657 1.336 3 3.007 3H21zM15 3v5.997A1 1 0 0 0 15.99 10H21l-6-7zm-3.005 11A2 2 0 0 0 10 15.992v7.016A2 2 0 0 0 11.995 25h17.01A2 2 0 0 0 31 23.008v-7.016A2 2 0 0 0 29.005 14h-17.01zM25 19v-2h4v-1h-5v7h1v-3h3v-1h-3zm-13-1v5h1v-3h1.995a2 2 0 0 0 0-4H12v2zm1-1v2h2c.553 0 1-.444 1-1 0-.552-.443-1-1-1h-2zm5-1v7h2.995A1.998 1.998 0 0 0 23 20.994v-2.988A2.003 2.003 0 0 0 20.995 16H18zm1 1v5h2c.553 0 1-.444 1-1v-3c0-.552-.443-1-1-1h-2z" fill="#157EFB" fill-rule="evenodd"/></svg>