<svg height="32" width="32" xmlns="http://www.w3.org/2000/svg"><path d="M21 26v2.003A1.995 1.995 0 0 1 19.003 30H3.997A2 2 0 0 1 2 27.993V5.007C2 3.897 2.9 3 4.01 3H14v6.002c0 1.11.898 1.998 2.006 1.998H21v2H9.007A3.003 3.003 0 0 0 6 16v7c0 1.657 1.336 3 3.007 3H21zM15 3v5.997A1 1 0 0 0 15.99 10H21l-6-7zM8.995 14A2 2 0 0 0 7 15.992v7.016A2 2 0 0 0 8.995 25h17.01A2 2 0 0 0 28 23.008v-7.016A2 2 0 0 0 26.005 14H8.995zM12 18v5h1v-3h1.995a2 2 0 0 0 0-4H12v2zm1-1v2h2c.553 0 1-.444 1-1 0-.552-.443-1-1-1h-2zm8 3v3h-1v-3l-2-3v-1h1v1l1.5 2.25L22 17v-1h1v1l-2 3z" fill="#157EFB" fill-rule="evenodd"/></svg>