<svg height="32" width="32" xmlns="http://www.w3.org/2000/svg"><path d="M21 26v2.003A1.995 1.995 0 0 1 19.003 30H3.997A2 2 0 0 1 2 27.993V5.007C2 3.897 2.9 3 4.01 3H14v6.002c0 1.11.898 1.998 2.006 1.998H21v2h-8.993A3.003 3.003 0 0 0 9 16v7c0 1.657 1.336 3 3.007 3H21zM15 3v5.997A1 1 0 0 0 15.99 10H21l-6-7zm-3.005 11A2 2 0 0 0 10 15.992v7.016A2 2 0 0 0 11.995 25h17.01A2 2 0 0 0 31 23.008v-7.016A2 2 0 0 0 29.005 14h-17.01zm1.805 6H13v3h-1v-7h2.995A2 2 0 0 1 15 20l2 3h-1.2l-2-3zm-.8-3v2h2c.553 0 1-.444 1-1 0-.552-.443-1-1-1h-2zm9 3h-3v3h-1v-5c0-1.112.898-2 2.005-2h.99A2 2 0 0 1 23 18v5h-1v-3zm-2-3c-.553 0-1 .444-1 1v1h3v-1c0-.552-.443-1-1-1h-1zm5.8 3H25v3h-1v-7h2.995A2 2 0 0 1 27 20l2 3h-1.2l-2-3zm-.8-3v2h2c.553 0 1-.444 1-1 0-.552-.443-1-1-1h-2z" fill="#157EFB" fill-rule="evenodd"/></svg>