<svg height="32" width="32" xmlns="http://www.w3.org/2000/svg"><path d="M19 26v2.003A1.995 1.995 0 0 1 17.003 30H1.997A2 2 0 0 1 0 27.993V5.007C0 3.897.9 3 2.01 3H12v6.002c0 1.11.898 1.998 2.006 1.998H19v2H8.007A3.003 3.003 0 0 0 5 16v7c0 1.657 1.336 3 3.007 3H19zM13 3v5.997A1 1 0 0 0 13.99 10H19l-6-7zM8.004 14C6.897 14 6 14.9 6 15.992v7.016C6 24.108 6.89 25 8.004 25h20.992C30.103 25 31 24.1 31 23.008v-7.016c0-1.1-.89-1.992-2.004-1.992H8.004zM10 17v6h1v-6h2v-1H8v1h2zm5 0v5h-1v1h3v-1h-1v-5h1v-1h-3v1h1zm4 2v-2h4v-1h-5v7h1v-3h3v-1h-3zm6 0v-2h4v-1h-5v7h1v-3h3v-1h-3z" fill="#157EFB" fill-rule="evenodd"/></svg>