<svg height="32" width="32" xmlns="http://www.w3.org/2000/svg"><path d="M19 26v2.003A1.995 1.995 0 0 1 17.003 30H1.997A2 2 0 0 1 0 27.993V5.007C0 3.897.9 3 2.01 3H12v6.002c0 1.11.898 1.998 2.006 1.998H19v2H6.007A3.003 3.003 0 0 0 3 16v7c0 1.657 1.336 3 3.007 3H19zM13 3v5.997A1 1 0 0 0 13.99 10H19l-6-7zM6.007 14C4.9 14 4 14.9 4 15.992v7.016A2 2 0 0 0 6.007 25h22.986C30.1 25 31 24.1 31 23.008v-7.016A2 2 0 0 0 28.993 14H6.007zM8 19.5L6 16h1l1.5 2.625L10 16h1l-2 3.5 2 3.5h-1l-1.5-2.625L7 23H6l2-3.5zm9 2.5v1h-5v-7h1v6h4zm3.005-6A1.998 1.998 0 0 0 18 18c0 1.105.888 2 2 2h.99c.558 0 1.01.444 1.01 1 0 .552-.443 1-1 1h-1c-.553 0-1-.456-1-.996v-.01h-1v.005a2 2 0 0 0 2.005 2h.99A1.998 1.998 0 0 0 23 21c0-1.105-.888-2-2-2h-.99c-.558 0-1.01-.444-1.01-1 0-.552.443-1 1-1h1c.553 0 1 .453 1 1h1a2 2 0 0 0-2.005-2h-.99zM26 19.5L24 16h1l1.5 2.625L28 16h1l-2 3.5 2 3.5h-1l-1.5-2.625L25 23h-1l2-3.5z" fill="#157EFB" fill-rule="evenodd"/></svg>