<svg xmlns="http://www.w3.org/2000/svg" preserveAspectRatio="xMidYMid" width="57" height="114"><defs><style>.cls-3,.cls-4{fill:#000;filter:url(#color-overlay-1)}.cls-4{filter:url(#color-overlay-2)}</style><filter id="color-overlay-1" filterUnits="userSpaceOnUse"><feFlood flood-color="#ff0e69" flood-opacity="1"/><feComposite operator="in" in2="SourceGraphic"/><feBlend in2="SourceGraphic" result="colorOverlay"/></filter><filter id="color-overlay-2" filterUnits="userSpaceOnUse"><feFlood flood-color="#538cf3" flood-opacity="1"/><feComposite operator="in" in2="SourceGraphic"/><feBlend in2="SourceGraphic" result="colorOverlay"/></filter></defs><g id="группа-1svg" fill-rule="evenodd"><path d="M49.224 98.45h-2.592l7.124-11.656H20.728V84.21h33.028l-7.124-11.663h2.592l7.77 12.952-7.77 12.95zM36.27 59.595H2.596v51.81H36.27V97.156h2.59v16.838H.004v-56.99H38.86v16.838h-2.59V59.594z" id="path-1" class="cls-3"/><path d="M49.224 41.45h-2.592l7.124-11.656H20.728V27.21h33.028l-7.124-11.663h2.592l7.77 12.952-7.77 12.95zM36.27 2.595H2.596v51.81H36.27V40.156h2.59v16.838H.004V.004H38.86v16.838h-2.59V2.594z" id="path-2" class="cls-4"/></g></svg>