<svg width="103" height="192" xmlns="http://www.w3.org/2000/svg"><g fill="none" fill-rule="evenodd"><path d="M100.53 66.134c-4.944 8.605-13.774 22.054-13.774 22.054L66.08 88.2l-.33 8.213-11.23-18.95 12.622-16.927-.264 7.81 17.62.163-14.834-26.865 18.222-9.648 13.668 24.733c1.343 2.43 1.003 5.883-1.025 9.404zM54.74 32l7.32-4.12-9.22-14.7-15.383 26.574-18.028-9.987 14.153-24.47c1.388-2.4 4.562-3.95 8.684-4.145 10.075-.472 26.41-.29 26.41-.29L79.67 17.993l7.288-4.086-10.442 19.37L54.74 32zm-28.765 7.94l9.994 19.406-7.68-4.434-8.53 15.092 31.21.01V90.28H22.237c-2.824 0-5.767-1.932-7.967-5.347C8.89 76.58.998 62.583.998 62.583l9.828-17.797L3.6 40.592l22.375-.652z" fill="#9CA3AE"/><path d="M100.53 161.592c-4.944 8.606-13.774 22.055-13.774 22.055l-20.676.012-.33 8.21-11.23-18.95 12.622-16.925-.264 7.81 17.62.162-14.834-26.864 18.222-9.648 13.668 24.734c1.343 2.43 1.003 5.882-1.025 9.402zM54.74 127.46l7.32-4.123-9.22-14.698-15.383 26.572-18.028-9.987 14.153-24.47c1.388-2.4 4.562-3.95 8.684-4.145 10.075-.472 26.41-.29 26.41-.29l10.992 17.133 7.288-4.086-10.442 19.37-21.775-1.278zm-28.765 7.94l9.994 19.404-7.68-4.434-8.53 15.092 31.21.01v20.267H22.237c-2.824 0-5.767-1.933-7.967-5.348-5.38-8.354-13.272-22.35-13.272-22.35l9.828-17.797L3.6 136.05l22.375-.65z" fill="#2DCC72"/></g></svg>