<svg width="349" height="372" xmlns="http://www.w3.org/2000/svg"><path d="M348.06 309.293c0 42.78-109.397 62.338-174.178 62.338-64.78 0-173.565-19.556-173.565-62.337 0-6.723 2.445-12.834 7.334-18.334C66.933 169.34 51.655 112.504 84.046 67.28c14.667-20.168 31.78-33.002 59.28-39.113C144.548 12.277 157.382.055 173.883.055c15.89 0 29.335 12.223 30.558 28.112 27.502 6.11 44.614 18.945 59.282 39.113 32.39 45.225 17.11 102.062 76.393 223.68 4.888 5.5 7.944 11.61 7.944 18.333zM312 297.07c-25.056-29.944-89.837-36.056-138.118-36.056-47.67 0-113.062 6.11-138.118 36.057 25.057 29.948 90.45 37.28 138.118 36.67 48.28 0 113.062-6.113 138.12-36.67zm-165.62-14.667c0-3.666 18.946-4.277 27.502-4.277 21.39 0 27.502 1.834 27.502 4.277 0 17.113-12.224 30.56-27.502 30.56-15.278 0-27.5-13.447-27.5-30.56z" fill="#F4B300" fill-rule="evenodd"/></svg>