<svg width="112" height="117" xmlns="http://www.w3.org/2000/svg"><g fill="none" fill-rule="evenodd"><path d="M107.44 28H86v12c0 5.514-4.486 10-10 10s-10-4.486-10-10V28H46v12c0 5.514-4.486 10-10 10s-10-4.486-10-10V28H4.56c-1.156 0-2.26.547-3.03 1.504S.396 31.737.528 33.01l7.195 69.77c.134 7.866 5.95 14.22 13.083 14.22h70.39c7.132 0 12.95-6.354 13.084-14.22l7.194-69.77c.13-1.273-.234-2.55-1.005-3.506-.77-.957-1.874-1.504-3.03-1.504z" fill="#439FDE"/><path d="M36 44c2.206 0 4-1.794 4-4V18c0-6.177 6.23-10 12-10h10c6.074 0 10 3.925 10 10v22c0 2.206 1.795 4 4 4s4-1.794 4-4V18C80 7.57 72.43 0 62 0H52C40.972 0 32 8.075 32 18v22c0 2.206 1.794 4 4 4z" fill="#CCCCCB"/></g></svg>